# xmcd
#
# Track frame offsets: 
#        150
#        16595
#        32527
#        47592
#        62452
#        78397
#        93775
#        107095
#        121127
#        135730
#        155390
#        166620
#        180797
#        198922
#        215427
#        231235
#
# Disc length: 3307 seconds
#
# Revision: 1
# Processed by: cddbd v1.5.2PL0 Copyright (c) Steve Scherf et al.
# Submitted via: ExactAudioCopy v0.95b4
#
DISCID=b20ce910
DTITLE=Billie Holiday - Ultimate Billie Holiday
DYEAR=1997
DGENRE=Jazz
TTITLE0=Lover, Come Back to Me
TTITLE1=Good Morning, Heartache
TTITLE2=Body and Soul
TTITLE3=I Can't Face the Music
TTITLE4=Solitude
TTITLE5=I Cried for You
TTITLE6=My Man
TTITLE7=I Must Have That Man!
TTITLE8=He's Funny That Way
TTITLE9=Please Don't Talk About Me When I'm Gone
TTITLE10=Don't Explain
TTITLE11=Strange Fruit
TTITLE12=God Bless the Child
TTITLE13=Some Other Spring
TTITLE14=Fine and Mellow
TTITLE15=Lady Sings the Blues
EXTD=DISC: 1\nUPC: 731455759525\nLABEL: Verve\nENSORECORD: 172443\n
EXTT0=PERFORMER: Holiday, Billie\n
EXTT1=PERFORMER: Holiday, Billie\n
EXTT2=PERFORMER: Holiday, Billie\n
EXTT3=PERFORMER: Holiday, Billie\n
EXTT4=PERFORMER: Holiday, Billie\n
EXTT5=PERFORMER: Holiday, Billie\n
EXTT6=PERFORMER: Holiday, Billie\n
EXTT7=PERFORMER: Holiday, Billie\n
EXTT8=PERFORMER: Holiday, Billie\n
EXTT9=PERFORMER: Holiday, Billie\n
EXTT10=PERFORMER: Holiday, Billie\n
EXTT11=PERFORMER: Holiday, Billie\n
EXTT12=PERFORMER: Holiday, Billie\n
EXTT13=PERFORMER: Holiday, Billie\n
EXTT14=PERFORMER: Holiday, Billie\n
EXTT15=PERFORMER: Holiday, Billie\n
PLAYORDER=
